<svg width="561" height="500" viewBox="0 0 561 500" fill="none" xmlns="http://www.w3.org/2000/svg">
<path d="M134.095 245.097C216.948 245.097 269.673 189.356 269.673 119.302C269.673 48.4949 216.948 -8 134.095 -8C51.9956 -8 0.024292 48.4949 0.024292 119.302C0.024292 189.356 51.9956 245.097 134.095 245.097ZM156.691 501.961L478.311 -0.467352H404.497L83.6303 501.961H156.691ZM425.586 511C507.686 511 560.411 455.258 560.411 385.205C560.411 314.398 507.686 257.903 425.586 257.903C343.487 257.903 291.516 314.398 291.516 385.205C291.516 455.258 343.487 511 425.586 511ZM134.095 165.251C110.746 165.251 91.9156 151.692 91.9156 119.302C91.9156 85.4049 110.746 71.8462 134.095 71.8462C158.198 71.8462 177.781 85.4049 177.781 119.302C177.781 151.692 158.198 165.251 134.095 165.251ZM425.586 431.154C401.484 431.154 382.654 418.348 382.654 385.205C382.654 351.308 401.484 337.749 425.586 337.749C449.689 337.749 469.272 351.308 469.272 385.205C469.272 418.348 449.689 431.154 425.586 431.154Z" fill="white"/>
</svg>
